# xmcd
#
# Track frame offsets:
#	154
#	14558
#	27944
#	44669
#	60639
#	79854
#	96911
#	115136
#	132288
#	149249
#	165305
#	181967
#	201727
#	222170
#	240982
#	258237
#	275215
#	288850
#	306690
#	325842
#
# Disc length: 4571 seconds
#
# Revision: 0
# Processed by: cddbd v1.5.1PL0 Copyright (c) Steve Scherf et al.
# Submitted via: dBpowerAMP V4.0
#
DISCID=3911d914
DTITLE=Jose Jose  - Biografia en cancion vol.2
DYEAR=1900
DGENRE=Ballad
TTITLE0=Y que
TTITLE1=Me vas a hechar de menos
TTITLE2=Y quien puede ser
TTITLE3=So y asi
TTITLE4=Como tu
TTITLE5=Amnesia
TTITLE6=Cuarenta y veinte
TTITLE7=Asi de facil 
TTITLE8=Dejalo todo 
TTITLE9=No valio la pena
TTITLE10=Lo dudo
TTITLE11=Te quiero tal como eres
TTITLE12=Amor amor
TTITLE13=Lo pasado pasado 
TTITLE14=Preso 
TTITLE15=Buenos dias amor
TTITLE16=Tu ganas
TTITLE17=Cuando vayas conmigo
TTITLE18=Alejate
TTITLE19=Polvo enamorado
EXTD=
EXTT0=
EXTT1=
EXTT2=
EXTT3=
EXTT4=
EXTT5=
EXTT6=
EXTT7=
EXTT8=
EXTT9=
EXTT10=
EXTT11=
EXTT12=
EXTT13=
EXTT14=
EXTT15=
EXTT16=
EXTT17=
EXTT18=
EXTT19=
PLAYORDER=
